<?xml version="1.0" encoding="UTF-8" standalone="no"?>
<svg
   xmlns:ooo="http://xml.openoffice.org/svg/export"
   xmlns:dc="http://purl.org/dc/elements/1.1/"
   xmlns:cc="http://creativecommons.org/ns#"
   xmlns:rdf="http://www.w3.org/1999/02/22-rdf-syntax-ns#"
   xmlns:svg="http://www.w3.org/2000/svg"
   xmlns="http://www.w3.org/2000/svg"
   xmlns:sodipodi="http://sodipodi.sourceforge.net/DTD/sodipodi-0.dtd"
   xmlns:inkscape="http://www.inkscape.org/namespaces/inkscape"
   version="1.2"
   width="215.9mm"
   height="279.4mm"
   viewBox="0 0 21590 27940"
   preserveAspectRatio="xMidYMid"
   fill-rule="evenodd"
   clip-path="url(#presentation_clip_path)"
   stroke-width="28.222"
   stroke-linejoin="round"
   xml:space="preserve"
   id="svg5600"
   inkscape:version="0.48.4 r9939"
   sodipodi:docname="gen_event.svg"><metadata
   id="metadata6345"><rdf:RDF><cc:Work
       rdf:about=""><dc:format>image/svg+xml</dc:format><dc:type
         rdf:resource="http://purl.org/dc/dcmitype/StillImage" /><dc:title></dc:title></cc:Work></rdf:RDF></metadata><sodipodi:namedview
   pagecolor="#ffffff"
   bordercolor="#666666"
   borderopacity="1"
   objecttolerance="10"
   gridtolerance="10"
   guidetolerance="10"
   inkscape:pageopacity="0"
   inkscape:pageshadow="2"
   inkscape:window-width="1280"
   inkscape:window-height="913"
   id="namedview6343"
   showgrid="false"
   inkscape:zoom="0.7"
   inkscape:cx="139.64286"
   inkscape:cy="495"
   inkscape:window-x="-3"
   inkscape:window-y="-3"
   inkscape:window-maximized="1"
   inkscape:current-layer="svg5600" />
 <defs
   class="ClipPathGroup"
   id="defs5602">
  <clipPath
   id="presentation_clip_path"
   clipPathUnits="userSpaceOnUse">
   <rect
   x="0"
   y="0"
   width="21590"
   height="27940"
   id="rect5605" />
  </clipPath>
 
  
 
   
  
    
   
     
     
     
     
     
     
     
     
     
     
     
     
     
     
     
     
     
     
     
     
     
     
     
     
     
     
     
     
     
     
     
     
     
     
     
     
     
     
     
    
      
     
      
     
      
     
      
     
      
     
      
     
      
     
      
     
      
     
      
     
      
     
      
     
      
     
      
     
      
     
      
     
      
     
      
     
      
     
      
     
      
     
      
     
      
     
      
     
      
     
      
     
      
     
      
     
      
     
      
     
      
     
      
     
      
     
      
     
      
     
      
     
      
     
      
     
      
     </defs>
 <defs
   class="TextShapeIndex"
   id="defs5607">
  <g
   ooo:slide="id1"
   ooo:id-list="id3 id4 id5 id6 id7 id8 id9 id10 id11 id12 id13 id14 id15 id16 id17 id18 id19 id20 id21 id22 id23 id24 id25 id26 id27 id28 id29 id30 id31 id32 id33 id34 id35 id36 id37 id38 id39 id40 id41"
   id="g5609" />
 </defs>
 <defs
   class="EmbeddedBulletChars"
   id="defs5611">
  <g
   id="bullet-char-template(57356)"
   transform="scale(0.00048828125,-0.00048828125)">
   <path
   d="M 580,1141 L 1163,571 580,0 -4,571 580,1141 Z"
   id="path5614" />
  </g>
  <g
   id="bullet-char-template(57354)"
   transform="scale(0.00048828125,-0.00048828125)">
   <path
   d="M 8,1128 L 1137,1128 1137,0 8,0 8,1128 Z"
   id="path5617" />
  </g>
  <g
   id="bullet-char-template(10146)"
   transform="scale(0.00048828125,-0.00048828125)">
   <path
   d="M 174,0 L 602,739 174,1481 1456,739 174,0 Z M 1358,739 L 309,1346 659,739 1358,739 Z"
   id="path5620" />
  </g>
  <g
   id="bullet-char-template(10132)"
   transform="scale(0.00048828125,-0.00048828125)">
   <path
   d="M 2015,739 L 1276,0 717,0 1260,543 174,543 174,936 1260,936 717,1481 1274,1481 2015,739 Z"
   id="path5623" />
  </g>
  <g
   id="bullet-char-template(10007)"
   transform="scale(0.00048828125,-0.00048828125)">
   <path
   d="M 0,-2 C -7,14 -16,27 -25,37 L 356,567 C 262,823 215,952 215,954 215,979 228,992 255,992 264,992 276,990 289,987 310,991 331,999 354,1012 L 381,999 492,748 772,1049 836,1024 860,1049 C 881,1039 901,1025 922,1006 886,937 835,863 770,784 769,783 710,716 594,584 L 774,223 C 774,196 753,168 711,139 L 727,119 C 717,90 699,76 672,76 641,76 570,178 457,381 L 164,-76 C 142,-110 111,-127 72,-127 30,-127 9,-110 8,-76 1,-67 -2,-52 -2,-32 -2,-23 -1,-13 0,-2 Z"
   id="path5626" />
  </g>
  <g
   id="bullet-char-template(10004)"
   transform="scale(0.00048828125,-0.00048828125)">
   <path
   d="M 285,-33 C 182,-33 111,30 74,156 52,228 41,333 41,471 41,549 55,616 82,672 116,743 169,778 240,778 293,778 328,747 346,684 L 369,508 C 377,444 397,411 428,410 L 1163,1116 C 1174,1127 1196,1133 1229,1133 1271,1133 1292,1118 1292,1087 L 1292,965 C 1292,929 1282,901 1262,881 L 442,47 C 390,-6 338,-33 285,-33 Z"
   id="path5629" />
  </g>
  <g
   id="bullet-char-template(9679)"
   transform="scale(0.00048828125,-0.00048828125)">
   <path
   d="M 813,0 C 632,0 489,54 383,161 276,268 223,411 223,592 223,773 276,916 383,1023 489,1130 632,1184 813,1184 992,1184 1136,1130 1245,1023 1353,916 1407,772 1407,592 1407,412 1353,268 1245,161 1136,54 992,0 813,0 Z"
   id="path5632" />
  </g>
  <g
   id="bullet-char-template(8226)"
   transform="scale(0.00048828125,-0.00048828125)">
   <path
   d="M 346,457 C 273,457 209,483 155,535 101,586 74,649 74,723 74,796 101,859 155,911 209,963 273,989 346,989 419,989 480,963 531,910 582,859 608,796 608,723 608,648 583,586 532,535 482,483 420,457 346,457 Z"
   id="path5635" />
  </g>
  <g
   id="bullet-char-template(8211)"
   transform="scale(0.00048828125,-0.00048828125)">
   <path
   d="M -4,459 L 1135,459 1135,606 -4,606 -4,459 Z"
   id="path5638" />
  </g>
 </defs>
 <defs
   class="TextEmbeddedBitmaps"
   id="defs5640" />
 <g
   id="g5642"
   transform="matrix(0.7,0,0,0.7,3210.6927,3407.6402)">
  <g
   id="id2"
   class="Master_Slide">
   <g
   id="bg-id2"
   class="Background" />
   <g
   id="bo-id2"
   class="BackgroundObjects" />
  </g>
 </g>
 <g
   id="id3"
   transform="matrix(0.7,0,0,0.7,3210.6927,3407.6402)">
       <path
   style="fill:#ffffff;stroke:none"
   inkscape:connector-curvature="0"
   id="path5657"
   d="m 2840,6548 c 612,0 1080,467 1080,1079 0,612 -468,1080 -1080,1080 -612,0 -1079,-468 -1079,-1080 0,-612 467,-1079 1079,-1079 z m -1079,0 0,0 z m 2160,2160 0,0 z" />
       <path
   style="fill:none;stroke:#000000"
   inkscape:connector-curvature="0"
   id="path5659"
   d="m 2840,6548 c 612,0 1080,467 1080,1079 0,612 -468,1080 -1080,1080 -612,0 -1079,-468 -1079,-1080 0,-612 467,-1079 1079,-1079 z" />
       <path
   style="fill:none;stroke:#000000"
   inkscape:connector-curvature="0"
   id="path5661"
   d="m 1761,6548 0,0 z" />
       <path
   style="fill:none;stroke:#000000"
   inkscape:connector-curvature="0"
   id="path5663"
   d="m 3921,8708 0,0 z" />
       <text
   id="text5665"
   class="TextShape"><tspan
     style="font-size:423px;font-weight:400;font-family:'Liberation Sans, sans-serif'"
     id="tspan5667"
     font-weight="400"
     font-size="423px"
     class="TextParagraph"><tspan
       id="tspan5669"
       y="7776"
       x="2298"
       class="TextPosition"><tspan
         style="fill:#000000;stroke:none"
         id="tspan5671">Client</tspan></tspan></tspan></text>

      </g><g
   id="id4"
   transform="matrix(0.7,0,0,0.7,3210.6927,3407.6402)">
       <path
   style="fill:#ffffff;stroke:none"
   inkscape:connector-curvature="0"
   id="path5676"
   d="m 10524,9089 -1461,0 0,-3048 2921,0 0,3048 -1460,0 z" />
       <path
   style="fill:none;stroke:#000000"
   inkscape:connector-curvature="0"
   id="path5678"
   d="m 10524,9089 -1461,0 0,-3048 2921,0 0,3048 -1460,0 z" />
      </g><g
   id="id5"
   transform="matrix(0.7,0,0,0.7,3210.6927,3407.6402)">
       <text
   id="text5683"
   class="TextShape"><tspan
     style="font-size:423px;font-weight:400;font-family:'Liberation Mono, monospace'"
     id="tspan5685"
     font-weight="400"
     font-size="423px"
     class="TextParagraph"><tspan
       id="tspan5687"
       y="6898"
       x="9422"
       class="TextPosition"><tspan
         style="fill:#000000;stroke:none"
         id="tspan5689">gen_event</tspan></tspan></tspan></text>

      </g><g
   id="id6"
   transform="matrix(0.7,0,0,0.7,3210.6927,3407.6402)">
       <path
   style="fill:#ffffff;stroke:none"
   inkscape:connector-curvature="0"
   id="path5694"
   d="m 9571,11083 c 0,-45 112,-89 224,-89 l 1457,0 c 112,0 225,44 225,89 l 0,584 c 0,45 -113,90 -225,90 l -1457,0 c -112,0 -224,-45 -224,-90 l 0,-584 z m 0,-89 0,0 z m 1906,763 0,0 z" />
       <path
   style="fill:none;stroke:#808080"
   inkscape:connector-curvature="0"
   id="path5696"
   d="m 9571,11083 c 0,-45 112,-89 224,-89 l 1457,0 c 112,0 225,44 225,89 l 0,584 c 0,45 -113,90 -225,90 l -1457,0 c -112,0 -224,-45 -224,-90 l 0,-584 z" />
       <path
   style="fill:none;stroke:#808080"
   inkscape:connector-curvature="0"
   id="path5698"
   d="m 9571,10994 0,0 z" />
       <path
   style="fill:none;stroke:#808080"
   inkscape:connector-curvature="0"
   id="path5700"
   d="m 11477,11757 0,0 z" />
      </g><g
   id="id7"
   transform="matrix(0.7,0,0,0.7,3210.6927,3407.6402)">
       <text
   id="text5705"
   class="TextShape"><tspan
     style="font-size:423px;font-weight:400;font-family:'Liberation Mono, monospace'"
     id="tspan5707"
     font-weight="400"
     font-size="423px"
     class="TextParagraph"><tspan
       id="tspan5709"
       y="12340"
       x="9670"
       class="TextPosition"><tspan
         style="fill:#000000;stroke:none"
         id="tspan5711">Module</tspan></tspan></tspan></text>

      </g><g
   id="id8"
   transform="matrix(0.7,0,0,0.7,3210.6927,3407.6402)">
       <path
   style="fill:none;stroke:#808080"
   inkscape:connector-curvature="0"
   id="path5716"
   d="m 3921,7946 51,0" />
       <path
   style="fill:none;stroke:#808080"
   inkscape:connector-curvature="0"
   id="path5718"
   d="m 4023,7946 51,0" />
       <path
   style="fill:none;stroke:#808080"
   inkscape:connector-curvature="0"
   id="path5720"
   d="m 4125,7946 51,0" />
       <path
   style="fill:none;stroke:#808080"
   inkscape:connector-curvature="0"
   id="path5722"
   d="m 4227,7946 51,0" />
       <path
   style="fill:none;stroke:#808080"
   inkscape:connector-curvature="0"
   id="path5724"
   d="m 4329,7946 51,0" />
       <path
   style="fill:none;stroke:#808080"
   inkscape:connector-curvature="0"
   id="path5726"
   d="m 4431,7946 51,0" />
       <path
   style="fill:none;stroke:#808080"
   inkscape:connector-curvature="0"
   id="path5728"
   d="m 4533,7946 51,0" />
       <path
   style="fill:none;stroke:#808080"
   inkscape:connector-curvature="0"
   id="path5730"
   d="m 4635,7946 51,0" />
       <path
   style="fill:none;stroke:#808080"
   inkscape:connector-curvature="0"
   id="path5732"
   d="m 4737,7946 51,0" />
       <path
   style="fill:none;stroke:#808080"
   inkscape:connector-curvature="0"
   id="path5734"
   d="m 4839,7946 51,0" />
       <path
   style="fill:none;stroke:#808080"
   inkscape:connector-curvature="0"
   id="path5736"
   d="m 4941,7946 51,0" />
       <path
   style="fill:none;stroke:#808080"
   inkscape:connector-curvature="0"
   id="path5738"
   d="m 5043,7946 51,0" />
       <path
   style="fill:none;stroke:#808080"
   inkscape:connector-curvature="0"
   id="path5740"
   d="m 5145,7946 51,0" />
       <path
   style="fill:none;stroke:#808080"
   inkscape:connector-curvature="0"
   id="path5742"
   d="m 5247,7946 51,0" />
       <path
   style="fill:none;stroke:#808080"
   inkscape:connector-curvature="0"
   id="path5744"
   d="m 5349,7946 51,0" />
       <path
   style="fill:none;stroke:#808080"
   inkscape:connector-curvature="0"
   id="path5746"
   d="m 5451,7946 51,0" />
       <path
   style="fill:none;stroke:#808080"
   inkscape:connector-curvature="0"
   id="path5748"
   d="m 5553,7946 51,0" />
       <path
   style="fill:none;stroke:#808080"
   inkscape:connector-curvature="0"
   id="path5750"
   d="m 5655,7946 51,0" />
       <path
   style="fill:none;stroke:#808080"
   inkscape:connector-curvature="0"
   id="path5752"
   d="m 5757,7946 51,0" />
       <path
   style="fill:none;stroke:#808080"
   inkscape:connector-curvature="0"
   id="path5754"
   d="m 5859,7946 51,0" />
       <path
   style="fill:none;stroke:#808080"
   inkscape:connector-curvature="0"
   id="path5756"
   d="m 5961,7946 51,0" />
       <path
   style="fill:none;stroke:#808080"
   inkscape:connector-curvature="0"
   id="path5758"
   d="m 6063,7946 51,0" />
       <path
   style="fill:none;stroke:#808080"
   inkscape:connector-curvature="0"
   id="path5760"
   d="m 6165,7946 51,0" />
       <path
   style="fill:none;stroke:#808080"
   inkscape:connector-curvature="0"
   id="path5762"
   d="m 6267,7946 51,0" />
       <path
   style="fill:none;stroke:#808080"
   inkscape:connector-curvature="0"
   id="path5764"
   d="m 6369,7946 51,0" />
       <path
   style="fill:none;stroke:#808080"
   inkscape:connector-curvature="0"
   id="path5766"
   d="m 6471,7946 51,0" />
       <path
   style="fill:none;stroke:#808080"
   inkscape:connector-curvature="0"
   id="path5768"
   d="m 6573,7946 51,0" />
       <path
   style="fill:none;stroke:#808080"
   inkscape:connector-curvature="0"
   id="path5770"
   d="m 6675,7946 51,0" />
       <path
   style="fill:none;stroke:#808080"
   inkscape:connector-curvature="0"
   id="path5772"
   d="m 6777,7946 51,0" />
       <path
   style="fill:none;stroke:#808080"
   inkscape:connector-curvature="0"
   id="path5774"
   d="m 6879,7946 51,0" />
       <path
   style="fill:none;stroke:#808080"
   inkscape:connector-curvature="0"
   id="path5776"
   d="m 6981,7946 51,0" />
       <path
   style="fill:none;stroke:#808080"
   inkscape:connector-curvature="0"
   id="path5778"
   d="m 7083,7946 51,0" />
       <path
   style="fill:none;stroke:#808080"
   inkscape:connector-curvature="0"
   id="path5780"
   d="m 7185,7946 51,0" />
       <path
   style="fill:none;stroke:#808080"
   inkscape:connector-curvature="0"
   id="path5782"
   d="m 7287,7946 51,0" />
       <path
   style="fill:none;stroke:#808080"
   inkscape:connector-curvature="0"
   id="path5784"
   d="m 7389,7946 51,0" />
       <path
   style="fill:none;stroke:#808080"
   inkscape:connector-curvature="0"
   id="path5786"
   d="m 7491,7946 51,0" />
       <path
   style="fill:none;stroke:#808080"
   inkscape:connector-curvature="0"
   id="path5788"
   d="m 7593,7946 51,0" />
       <path
   style="fill:none;stroke:#808080"
   inkscape:connector-curvature="0"
   id="path5790"
   d="m 7695,7946 51,0" />
       <path
   style="fill:none;stroke:#808080"
   inkscape:connector-curvature="0"
   id="path5792"
   d="m 7797,7946 51,0" />
       <path
   style="fill:none;stroke:#808080"
   inkscape:connector-curvature="0"
   id="path5794"
   d="m 7899,7946 51,0" />
       <path
   style="fill:none;stroke:#808080"
   inkscape:connector-curvature="0"
   id="path5796"
   d="m 8001,7946 51,0" />
       <path
   style="fill:none;stroke:#808080"
   inkscape:connector-curvature="0"
   id="path5798"
   d="m 8103,7946 51,0" />
       <path
   style="fill:none;stroke:#808080"
   inkscape:connector-curvature="0"
   id="path5800"
   d="m 8205,7946 51,0" />
       <path
   style="fill:none;stroke:#808080"
   inkscape:connector-curvature="0"
   id="path5802"
   d="m 8307,7946 51,0" />
       <path
   style="fill:none;stroke:#808080"
   inkscape:connector-curvature="0"
   id="path5804"
   d="m 8409,7946 51,0" />
       <path
   style="fill:none;stroke:#808080"
   inkscape:connector-curvature="0"
   id="path5806"
   d="m 8511,7946 51,0" />
       <path
   style="fill:#808080;stroke:none"
   inkscape:connector-curvature="0"
   id="path5808"
   d="m 9001,7946 -450,-150 0,300 450,-150 z" />
      </g><g
   id="id9"
   transform="matrix(0.7,0,0,0.7,3210.6927,3407.6402)">
       <path
   style="fill:none;stroke:#808080"
   inkscape:connector-curvature="0"
   id="path5813"
   d="m 11985,7565 51,0" />
       <path
   style="fill:none;stroke:#808080"
   inkscape:connector-curvature="0"
   id="path5815"
   d="m 12087,7565 51,0" />
       <path
   style="fill:none;stroke:#808080"
   inkscape:connector-curvature="0"
   id="path5817"
   d="m 12189,7565 51,0" />
       <path
   style="fill:none;stroke:#808080"
   inkscape:connector-curvature="0"
   id="path5819"
   d="m 12291,7565 51,0" />
       <path
   style="fill:none;stroke:#808080"
   inkscape:connector-curvature="0"
   id="path5821"
   d="m 12393,7565 51,0" />
       <path
   style="fill:none;stroke:#808080"
   inkscape:connector-curvature="0"
   id="path5823"
   d="m 12485,7575 0,51" />
       <path
   style="fill:none;stroke:#808080"
   inkscape:connector-curvature="0"
   id="path5825"
   d="m 12485,7677 0,51" />
       <path
   style="fill:none;stroke:#808080"
   inkscape:connector-curvature="0"
   id="path5827"
   d="m 12485,7779 0,51" />
       <path
   style="fill:none;stroke:#808080"
   inkscape:connector-curvature="0"
   id="path5829"
   d="m 12485,7881 0,51" />
       <path
   style="fill:none;stroke:#808080"
   inkscape:connector-curvature="0"
   id="path5831"
   d="m 12485,7983 0,51" />
       <path
   style="fill:none;stroke:#808080"
   inkscape:connector-curvature="0"
   id="path5833"
   d="m 12485,8085 0,51" />
       <path
   style="fill:none;stroke:#808080"
   inkscape:connector-curvature="0"
   id="path5835"
   d="m 12485,8187 0,51" />
       <path
   style="fill:none;stroke:#808080"
   inkscape:connector-curvature="0"
   id="path5837"
   d="m 12485,8289 0,51" />
       <path
   style="fill:none;stroke:#808080"
   inkscape:connector-curvature="0"
   id="path5839"
   d="m 12485,8391 0,51" />
       <path
   style="fill:none;stroke:#808080"
   inkscape:connector-curvature="0"
   id="path5841"
   d="m 12485,8493 0,51" />
       <path
   style="fill:none;stroke:#808080"
   inkscape:connector-curvature="0"
   id="path5843"
   d="m 12485,8595 0,51" />
       <path
   style="fill:none;stroke:#808080"
   inkscape:connector-curvature="0"
   id="path5845"
   d="m 12485,8697 0,51" />
       <path
   style="fill:none;stroke:#808080"
   inkscape:connector-curvature="0"
   id="path5847"
   d="m 12485,8799 0,51" />
       <path
   style="fill:none;stroke:#808080"
   inkscape:connector-curvature="0"
   id="path5849"
   d="m 12485,8901 0,51" />
       <path
   style="fill:none;stroke:#808080"
   inkscape:connector-curvature="0"
   id="path5851"
   d="m 12485,9003 0,51" />
       <path
   style="fill:none;stroke:#808080"
   inkscape:connector-curvature="0"
   id="path5853"
   d="m 12485,9105 0,51" />
       <path
   style="fill:none;stroke:#808080"
   inkscape:connector-curvature="0"
   id="path5855"
   d="m 12485,9207 0,51" />
       <path
   style="fill:none;stroke:#808080"
   inkscape:connector-curvature="0"
   id="path5857"
   d="m 12485,9309 0,51" />
       <path
   style="fill:none;stroke:#808080"
   inkscape:connector-curvature="0"
   id="path5859"
   d="m 12485,9411 0,51" />
       <path
   style="fill:none;stroke:#808080"
   inkscape:connector-curvature="0"
   id="path5861"
   d="m 12485,9513 0,51" />
       <path
   style="fill:none;stroke:#808080"
   inkscape:connector-curvature="0"
   id="path5863"
   d="m 12485,9615 0,51" />
       <path
   style="fill:none;stroke:#808080"
   inkscape:connector-curvature="0"
   id="path5865"
   d="m 12485,9717 0,51" />
       <path
   style="fill:none;stroke:#808080"
   inkscape:connector-curvature="0"
   id="path5867"
   d="m 12485,9819 0,51" />
       <path
   style="fill:none;stroke:#808080"
   inkscape:connector-curvature="0"
   id="path5869"
   d="m 12485,9921 0,51" />
       <path
   style="fill:none;stroke:#808080"
   inkscape:connector-curvature="0"
   id="path5871"
   d="m 12485,10023 0,51" />
       <path
   style="fill:none;stroke:#808080"
   inkscape:connector-curvature="0"
   id="path5873"
   d="m 12485,10125 0,51" />
       <path
   style="fill:none;stroke:#808080"
   inkscape:connector-curvature="0"
   id="path5875"
   d="m 12485,10227 0,51" />
       <path
   style="fill:none;stroke:#808080"
   inkscape:connector-curvature="0"
   id="path5877"
   d="m 12485,10329 0,51" />
       <path
   style="fill:none;stroke:#808080"
   inkscape:connector-curvature="0"
   id="path5879"
   d="m 12485,10431 0,51" />
       <path
   style="fill:none;stroke:#808080"
   inkscape:connector-curvature="0"
   id="path5881"
   d="m 12485,10533 0,51" />
       <path
   style="fill:none;stroke:#808080"
   inkscape:connector-curvature="0"
   id="path5883"
   d="m 12485,10635 0,51" />
       <path
   style="fill:none;stroke:#808080"
   inkscape:connector-curvature="0"
   id="path5885"
   d="m 12485,10737 0,51" />
       <path
   style="fill:none;stroke:#808080"
   inkscape:connector-curvature="0"
   id="path5887"
   d="m 12485,10839 0,51" />
       <path
   style="fill:none;stroke:#808080"
   inkscape:connector-curvature="0"
   id="path5889"
   d="m 12485,10941 0,51" />
       <path
   style="fill:none;stroke:#808080"
   inkscape:connector-curvature="0"
   id="path5891"
   d="m 12485,11043 0,51" />
       <path
   style="fill:none;stroke:#808080"
   inkscape:connector-curvature="0"
   id="path5893"
   d="m 12485,11145 0,51" />
       <path
   style="fill:none;stroke:#808080"
   inkscape:connector-curvature="0"
   id="path5895"
   d="m 12485,11247 0,51" />
       <path
   style="fill:none;stroke:#808080"
   inkscape:connector-curvature="0"
   id="path5897"
   d="m 12485,11349 0,26 -25,0" />
       <path
   style="fill:none;stroke:#808080"
   inkscape:connector-curvature="0"
   id="path5899"
   d="m 12409,11375 -51,0" />
       <path
   style="fill:none;stroke:#808080"
   inkscape:connector-curvature="0"
   id="path5901"
   d="m 12307,11375 -51,0" />
       <path
   style="fill:none;stroke:#808080"
   inkscape:connector-curvature="0"
   id="path5903"
   d="m 12205,11375 -51,0" />
       <path
   style="fill:none;stroke:#808080"
   inkscape:connector-curvature="0"
   id="path5905"
   d="m 12103,11375 -51,0" />
       <path
   style="fill:none;stroke:#808080"
   inkscape:connector-curvature="0"
   id="path5907"
   d="m 12001,11375 -51,0" />
       <path
   style="fill:#808080;stroke:none"
   inkscape:connector-curvature="0"
   id="path5909"
   d="m 11477,11375 450,150 0,-300 -450,150 z" />
      </g><g
   id="id10"
   transform="matrix(0.7,0,0,0.7,3210.6927,3407.6402)">
       <path
   style="fill:none;stroke:#808080"
   inkscape:connector-curvature="0"
   id="path5914"
   d="m 10525,10994 0,-51" />
       <path
   style="fill:none;stroke:#808080"
   inkscape:connector-curvature="0"
   id="path5916"
   d="m 10525,10892 0,-51" />
       <path
   style="fill:none;stroke:#808080"
   inkscape:connector-curvature="0"
   id="path5918"
   d="m 10525,10790 0,-51" />
       <path
   style="fill:none;stroke:#808080"
   inkscape:connector-curvature="0"
   id="path5920"
   d="m 10525,10688 0,-51" />
       <path
   style="fill:none;stroke:#808080"
   inkscape:connector-curvature="0"
   id="path5922"
   d="m 10525,10586 0,-51" />
       <path
   style="fill:none;stroke:#808080"
   inkscape:connector-curvature="0"
   id="path5924"
   d="m 10525,10484 0,-51" />
       <path
   style="fill:none;stroke:#808080"
   inkscape:connector-curvature="0"
   id="path5926"
   d="m 10525,10382 0,-51" />
       <path
   style="fill:none;stroke:#808080"
   inkscape:connector-curvature="0"
   id="path5928"
   d="m 10525,10280 0,-51" />
       <path
   style="fill:none;stroke:#808080"
   inkscape:connector-curvature="0"
   id="path5930"
   d="m 10525,10178 0,-51" />
       <path
   style="fill:none;stroke:#808080"
   inkscape:connector-curvature="0"
   id="path5932"
   d="m 10525,10076 0,-34 -1,0 0,-16" />
       <path
   style="fill:none;stroke:#808080"
   inkscape:connector-curvature="0"
   id="path5934"
   d="m 10524,9975 0,-51" />
       <path
   style="fill:none;stroke:#808080"
   inkscape:connector-curvature="0"
   id="path5936"
   d="m 10524,9873 0,-51" />
       <path
   style="fill:none;stroke:#808080"
   inkscape:connector-curvature="0"
   id="path5938"
   d="m 10524,9771 0,-51" />
       <path
   style="fill:none;stroke:#808080"
   inkscape:connector-curvature="0"
   id="path5940"
   d="m 10524,9669 0,-51" />
       <path
   style="fill:none;stroke:#808080"
   inkscape:connector-curvature="0"
   id="path5942"
   d="m 10524,9567 0,-48" />
       <path
   style="fill:#808080;stroke:none"
   inkscape:connector-curvature="0"
   id="path5944"
   d="m 10524,9089 -150,450 300,0 -150,-450 z" />
      </g><g
   id="id11"
   transform="matrix(0.7,0,0,0.7,3210.6927,3407.6402)">
       <path
   style="fill:none;stroke:#808080"
   inkscape:connector-curvature="0"
   id="path5949"
   d="m 9001,8327 -51,0" />
       <path
   style="fill:none;stroke:#808080"
   inkscape:connector-curvature="0"
   id="path5951"
   d="m 8899,8327 -51,0" />
       <path
   style="fill:none;stroke:#808080"
   inkscape:connector-curvature="0"
   id="path5953"
   d="m 8797,8327 -51,0" />
       <path
   style="fill:none;stroke:#808080"
   inkscape:connector-curvature="0"
   id="path5955"
   d="m 8695,8327 -51,0" />
       <path
   style="fill:none;stroke:#808080"
   inkscape:connector-curvature="0"
   id="path5957"
   d="m 8593,8327 -51,0" />
       <path
   style="fill:none;stroke:#808080"
   inkscape:connector-curvature="0"
   id="path5959"
   d="m 8491,8327 -51,0" />
       <path
   style="fill:none;stroke:#808080"
   inkscape:connector-curvature="0"
   id="path5961"
   d="m 8389,8327 -51,0" />
       <path
   style="fill:none;stroke:#808080"
   inkscape:connector-curvature="0"
   id="path5963"
   d="m 8287,8327 -51,0" />
       <path
   style="fill:none;stroke:#808080"
   inkscape:connector-curvature="0"
   id="path5965"
   d="m 8185,8327 -51,0" />
       <path
   style="fill:none;stroke:#808080"
   inkscape:connector-curvature="0"
   id="path5967"
   d="m 8083,8327 -51,0" />
       <path
   style="fill:none;stroke:#808080"
   inkscape:connector-curvature="0"
   id="path5969"
   d="m 7981,8327 -51,0" />
       <path
   style="fill:none;stroke:#808080"
   inkscape:connector-curvature="0"
   id="path5971"
   d="m 7879,8327 -51,0" />
       <path
   style="fill:none;stroke:#808080"
   inkscape:connector-curvature="0"
   id="path5973"
   d="m 7777,8327 -51,0" />
       <path
   style="fill:none;stroke:#808080"
   inkscape:connector-curvature="0"
   id="path5975"
   d="m 7675,8327 -51,0" />
       <path
   style="fill:none;stroke:#808080"
   inkscape:connector-curvature="0"
   id="path5977"
   d="m 7573,8327 -51,0" />
       <path
   style="fill:none;stroke:#808080"
   inkscape:connector-curvature="0"
   id="path5979"
   d="m 7471,8327 -51,0" />
       <path
   style="fill:none;stroke:#808080"
   inkscape:connector-curvature="0"
   id="path5981"
   d="m 7369,8327 -51,0" />
       <path
   style="fill:none;stroke:#808080"
   inkscape:connector-curvature="0"
   id="path5983"
   d="m 7267,8327 -51,0" />
       <path
   style="fill:none;stroke:#808080"
   inkscape:connector-curvature="0"
   id="path5985"
   d="m 7165,8327 -51,0" />
       <path
   style="fill:none;stroke:#808080"
   inkscape:connector-curvature="0"
   id="path5987"
   d="m 7063,8327 -51,0" />
       <path
   style="fill:none;stroke:#808080"
   inkscape:connector-curvature="0"
   id="path5989"
   d="m 6961,8327 -51,0" />
       <path
   style="fill:none;stroke:#808080"
   inkscape:connector-curvature="0"
   id="path5991"
   d="m 6859,8327 -51,0" />
       <path
   style="fill:none;stroke:#808080"
   inkscape:connector-curvature="0"
   id="path5993"
   d="m 6757,8327 -51,0" />
       <path
   style="fill:none;stroke:#808080"
   inkscape:connector-curvature="0"
   id="path5995"
   d="m 6655,8327 -51,0" />
       <path
   style="fill:none;stroke:#808080"
   inkscape:connector-curvature="0"
   id="path5997"
   d="m 6553,8327 -51,0" />
       <path
   style="fill:none;stroke:#808080"
   inkscape:connector-curvature="0"
   id="path5999"
   d="m 6451,8327 -51,0" />
       <path
   style="fill:none;stroke:#808080"
   inkscape:connector-curvature="0"
   id="path6001"
   d="m 6349,8327 -51,0" />
       <path
   style="fill:none;stroke:#808080"
   inkscape:connector-curvature="0"
   id="path6003"
   d="m 6247,8327 -51,0" />
       <path
   style="fill:none;stroke:#808080"
   inkscape:connector-curvature="0"
   id="path6005"
   d="m 6145,8327 -51,0" />
       <path
   style="fill:none;stroke:#808080"
   inkscape:connector-curvature="0"
   id="path6007"
   d="m 6043,8327 -51,0" />
       <path
   style="fill:none;stroke:#808080"
   inkscape:connector-curvature="0"
   id="path6009"
   d="m 5941,8327 -51,0" />
       <path
   style="fill:none;stroke:#808080"
   inkscape:connector-curvature="0"
   id="path6011"
   d="m 5839,8327 -51,0" />
       <path
   style="fill:none;stroke:#808080"
   inkscape:connector-curvature="0"
   id="path6013"
   d="m 5737,8327 -51,0" />
       <path
   style="fill:none;stroke:#808080"
   inkscape:connector-curvature="0"
   id="path6015"
   d="m 5635,8327 -51,0" />
       <path
   style="fill:none;stroke:#808080"
   inkscape:connector-curvature="0"
   id="path6017"
   d="m 5533,8327 -51,0" />
       <path
   style="fill:none;stroke:#808080"
   inkscape:connector-curvature="0"
   id="path6019"
   d="m 5431,8327 -51,0" />
       <path
   style="fill:none;stroke:#808080"
   inkscape:connector-curvature="0"
   id="path6021"
   d="m 5329,8327 -51,0" />
       <path
   style="fill:none;stroke:#808080"
   inkscape:connector-curvature="0"
   id="path6023"
   d="m 5227,8327 -51,0" />
       <path
   style="fill:none;stroke:#808080"
   inkscape:connector-curvature="0"
   id="path6025"
   d="m 5125,8327 -51,0" />
       <path
   style="fill:none;stroke:#808080"
   inkscape:connector-curvature="0"
   id="path6027"
   d="m 5023,8327 -51,0" />
       <path
   style="fill:none;stroke:#808080"
   inkscape:connector-curvature="0"
   id="path6029"
   d="m 4921,8327 -51,0" />
       <path
   style="fill:none;stroke:#808080"
   inkscape:connector-curvature="0"
   id="path6031"
   d="m 4819,8327 -51,0" />
       <path
   style="fill:none;stroke:#808080"
   inkscape:connector-curvature="0"
   id="path6033"
   d="m 4717,8327 -51,0" />
       <path
   style="fill:none;stroke:#808080"
   inkscape:connector-curvature="0"
   id="path6035"
   d="m 4615,8327 -51,0" />
       <path
   style="fill:none;stroke:#808080"
   inkscape:connector-curvature="0"
   id="path6037"
   d="m 4513,8327 -51,0" />
       <path
   style="fill:none;stroke:#808080"
   inkscape:connector-curvature="0"
   id="path6039"
   d="m 4411,8327 -51,0" />
       <path
   style="fill:none;stroke:#808080"
   inkscape:connector-curvature="0"
   id="path6041"
   d="m 4309,8327 -51,0" />
       <path
   style="fill:none;stroke:#808080"
   inkscape:connector-curvature="0"
   id="path6043"
   d="m 4207,8327 -51,0" />
       <path
   style="fill:none;stroke:#808080"
   inkscape:connector-curvature="0"
   id="path6045"
   d="m 4105,8327 -8,0" />
       <path
   style="fill:#808080;stroke:none"
   inkscape:connector-curvature="0"
   id="path6047"
   d="m 3667,8327 450,150 0,-300 -450,150 z" />
      </g><g
   id="id12"
   transform="matrix(0.7,0,0,0.7,3210.6927,3407.6402)">
       <path
   style="fill:#ffffff;stroke:none"
   inkscape:connector-curvature="0"
   id="path6052"
   d="m 6206,2701 c 0,-45 112,-89 224,-89 l 1457,0 c 112,0 225,44 225,89 l 0,584 c 0,45 -113,90 -225,90 l -1457,0 c -112,0 -224,-45 -224,-90 l 0,-584 z m 0,-89 0,0 z m 1906,763 0,0 z" />
       <path
   style="fill:none;stroke:#000000"
   inkscape:connector-curvature="0"
   id="path6054"
   d="m 6206,2701 c 0,-45 112,-89 224,-89 l 1457,0 c 112,0 225,44 225,89 l 0,584 c 0,45 -113,90 -225,90 l -1457,0 c -112,0 -224,-45 -224,-90 l 0,-584 z" />
       <path
   style="fill:none;stroke:#000000"
   inkscape:connector-curvature="0"
   id="path6056"
   d="m 6206,2612 0,0 z" />
       <path
   style="fill:none;stroke:#000000"
   inkscape:connector-curvature="0"
   id="path6058"
   d="m 8112,3375 0,0 z" />
      </g><g
   id="id13"
   transform="matrix(0.7,0,0,0.7,3210.6927,3407.6402)">
       <text
   id="text6063"
   class="TextShape"><tspan
     style="font-size:423px;font-weight:400;font-family:'Liberation Mono, monospace'"
     id="tspan6065"
     font-weight="400"
     font-size="423px"
     class="TextParagraph"><tspan
       id="tspan6067"
       y="2453"
       x="6082"
       class="TextPosition"><tspan
         style="fill:#000000;stroke:none"
         id="tspan6069">Handler 1</tspan></tspan></tspan></text>

      </g><g
   id="id14"
   transform="matrix(0.7,0,0,0.7,3210.6927,3407.6402)">
       <text
   id="text6074"
   class="TextShape"><tspan
     style="font-size:423px;font-weight:400;font-family:'Liberation Mono, monospace'"
     id="tspan6076"
     font-weight="400"
     font-size="423px"
     class="TextParagraph"><tspan
       id="tspan6078"
       y="2453"
       x="9003"
       class="TextPosition"><tspan
         style="fill:#000000;stroke:none"
         id="tspan6080">Handler 2</tspan></tspan></tspan></text>

      </g><g
   id="id15"
   transform="matrix(0.7,0,0,0.7,3210.6927,3407.6402)">
       <path
   style="fill:#ffffff;stroke:none"
   inkscape:connector-curvature="0"
   id="path6085"
   d="m 9174,2701 c 0,-45 112,-89 224,-89 l 1457,0 c 112,0 225,44 225,89 l 0,584 c 0,45 -113,90 -225,90 l -1457,0 c -112,0 -224,-45 -224,-90 l 0,-584 z m 0,-89 0,0 z m 1906,763 0,0 z" />
       <path
   style="fill:none;stroke:#000000"
   inkscape:connector-curvature="0"
   id="path6087"
   d="m 9174,2701 c 0,-45 112,-89 224,-89 l 1457,0 c 112,0 225,44 225,89 l 0,584 c 0,45 -113,90 -225,90 l -1457,0 c -112,0 -224,-45 -224,-90 l 0,-584 z" />
       <path
   style="fill:none;stroke:#000000"
   inkscape:connector-curvature="0"
   id="path6089"
   d="m 9174,2612 0,0 z" />
       <path
   style="fill:none;stroke:#000000"
   inkscape:connector-curvature="0"
   id="path6091"
   d="m 11080,3375 0,0 z" />
      </g><g
   id="id16"
   transform="matrix(0.7,0,0,0.7,3210.6927,3407.6402)">
       <path
   style="fill:#ffffff;stroke:none"
   inkscape:connector-curvature="0"
   id="path6096"
   d="m 12088,2701 c 0,-45 112,-89 224,-89 l 1457,0 c 112,0 225,44 225,89 l 0,584 c 0,45 -113,90 -225,90 l -1457,0 c -112,0 -224,-45 -224,-90 l 0,-584 z m 0,-89 0,0 z m 1906,763 0,0 z" />
       <path
   style="fill:none;stroke:#000000"
   inkscape:connector-curvature="0"
   id="path6098"
   d="m 12088,2701 c 0,-45 112,-89 224,-89 l 1457,0 c 112,0 225,44 225,89 l 0,584 c 0,45 -113,90 -225,90 l -1457,0 c -112,0 -224,-45 -224,-90 l 0,-584 z" />
       <path
   style="fill:none;stroke:#000000"
   inkscape:connector-curvature="0"
   id="path6100"
   d="m 12088,2612 0,0 z" />
       <path
   style="fill:none;stroke:#000000"
   inkscape:connector-curvature="0"
   id="path6102"
   d="m 13994,3375 0,0 z" />
      </g><g
   id="id17"
   transform="matrix(0.7,0,0,0.7,3210.6927,3407.6402)">
       <text
   id="text6107"
   class="TextShape"><tspan
     style="font-size:423px;font-weight:400;font-family:'Liberation Mono, monospace'"
     id="tspan6109"
     font-weight="400"
     font-size="423px"
     class="TextParagraph"><tspan
       id="tspan6111"
       y="2453"
       x="11918"
       class="TextPosition"><tspan
         style="fill:#000000;stroke:none"
         id="tspan6113">Handler 3</tspan></tspan></tspan></text>

      </g><g
   id="id18"
   transform="matrix(0.7,0,0,0.7,3210.6927,3407.6402)">
       <path
   style="fill:none;stroke:#000000"
   inkscape:connector-curvature="0"
   id="path6118"
   d="m 3794,7057 4777,0" />
       <path
   style="fill:#000000;stroke:none"
   inkscape:connector-curvature="0"
   id="path6120"
   d="m 9001,7057 -450,-150 0,300 450,-150 z" />
      </g><g
   id="id19"
   transform="matrix(0.7,0,0,0.7,3210.6927,3407.6402)">
       <text
   id="text6125"
   class="TextShape"><tspan
     style="font-size:353px;font-weight:400;font-family:'Liberation Mono, monospace'"
     id="tspan6127"
     font-weight="400"
     font-size="353px"
     class="TextParagraph"><tspan
       id="tspan6129"
       y="6698"
       x="3917"
       class="TextPosition"><tspan
         style="fill:#000000;stroke:none"
         id="tspan6131">notify(EventMgr, Event)</tspan></tspan></tspan></text>

      </g><g
   id="id20"
   transform="matrix(0.7,0,0,0.7,3210.6927,3407.6402)">
       <path
   style="fill:none;stroke:#000000"
   inkscape:connector-curvature="0"
   id="path6136"
   d="M 10525,6041 7435,3638" />
       <path
   style="fill:#000000;stroke:none"
   inkscape:connector-curvature="0"
   id="path6138"
   d="m 7096,3374 263,395 184,-237 -447,-158 z" />
      </g><g
   id="id21"
   transform="matrix(0.7,0,0,0.7,3210.6927,3407.6402)">
       <path
   style="fill:none;stroke:#000000"
   inkscape:connector-curvature="0"
   id="path6143"
   d="M 10525,6041 10205,3800" />
       <path
   style="fill:#000000;stroke:none"
   inkscape:connector-curvature="0"
   id="path6145"
   d="m 10144,3374 -85,467 297,-43 -212,-424 z" />
      </g><g
   id="id22"
   transform="matrix(0.7,0,0,0.7,3210.6927,3407.6402)">
       <path
   style="fill:none;stroke:#000000"
   inkscape:connector-curvature="0"
   id="path6150"
   d="M 10525,6041 12881,3798" />
       <path
   style="fill:#000000;stroke:none"
   inkscape:connector-curvature="0"
   id="path6152"
   d="m 13192,3501 -429,202 207,217 222,-419 z" />
      </g><g
   id="id23"
   transform="matrix(0.7,0,0,0.7,3210.6927,3407.6402)">
       <text
   id="text6157"
   class="TextShape"><tspan
     style="font-size:353px;font-weight:400;font-family:'Liberation Mono, monospace'"
     id="tspan6159"
     font-weight="400"
     font-size="353px"
     class="TextParagraph"><tspan
       id="tspan6161"
       y="5221"
       x="11791"
       class="TextPosition"><tspan
         style="fill:#000000;stroke:none"
         id="tspan6163">handle_event(Event, State)</tspan></tspan></tspan></text>

      </g><g
   id="id24"
   transform="matrix(0.7,0,0,0.7,3210.6927,3407.6402)">
       <text
   id="text6168"
   class="TextShape"><tspan
     style="font-size:353px;font-weight:400;font-family:'Liberation Mono, monospace'"
     id="tspan6170"
     font-weight="400"
     font-size="353px"
     class="TextParagraph"><tspan
       id="tspan6172"
       y="7841"
       x="4171"
       class="TextPosition"><tspan
         style="fill:#666666;stroke:none"
         id="tspan6174">call(Server,Request)</tspan></tspan></tspan></text>

      </g><g
   id="id25"
   transform="matrix(0.7,0,0,0.7,3210.6927,3407.6402)">
       <text
   id="text6179"
   class="TextShape"><tspan
     style="font-size:353px;font-weight:400;font-family:'Liberation Mono, monospace'"
     id="tspan6181"
     font-weight="400"
     font-size="353px"
     class="TextParagraph"><tspan
       id="tspan6183"
       y="8744"
       x="5187"
       class="TextPosition"><tspan
         style="fill:#666666;stroke:none"
         id="tspan6185">Reply</tspan></tspan></tspan></text>

      </g><g
   id="id26"
   transform="matrix(0.7,0,0,0.7,3210.6927,3407.6402)">
       <text
   id="text6190"
   class="TextShape"><tspan
     style="font-size:353px;font-weight:400;font-family:'Liberation Mono, monospace'"
     id="tspan6192"
     font-weight="400"
     font-size="353px"
     class="TextParagraph"><tspan
       id="tspan6194"
       y="9379"
       x="12732"
       class="TextPosition"><tspan
         style="fill:#666666;stroke:none"
         id="tspan6196">handle_call(Request, From, State)</tspan></tspan></tspan></text>

      </g><g
   id="id27"
   transform="matrix(0.7,0,0,0.7,3210.6927,3407.6402)">
       <text
   id="text6201"
   class="TextShape"><tspan
     style="font-size:353px;font-weight:400;font-family:'Liberation Mono, monospace'"
     id="tspan6203"
     font-weight="400"
     font-size="353px"
     class="TextParagraph"><tspan
       id="tspan6205"
       y="10282"
       x="5385"
       class="TextPosition"><tspan
         style="fill:#666666;stroke:none"
         id="tspan6207">{reply, Reply, NewState}</tspan></tspan></tspan></text>

      </g><g
   id="id28"
   transform="matrix(0.7,0,0,0.7,3210.6927,3407.6402)"
   inkscape:export-filename="/home/david/1234000000726/images/id41.png"
   inkscape:export-xdpi="90"
   inkscape:export-ydpi="90">
       <path
   style="fill:#ffffff;stroke:none"
   inkscape:connector-curvature="0"
   id="path6212"
   d="m 10532,20557 -1461,0 0,-1745 2921,0 0,1745 -1460,0 z" />
       <path
   style="fill:none;stroke:#000000"
   inkscape:connector-curvature="0"
   id="path6214"
   d="m 10532,20557 -1461,0 0,-1745 2921,0 0,1745 -1460,0 z" />
      </g><g
   id="id29"
   transform="matrix(0.7,0,0,0.7,3210.6927,3407.6402)"
   inkscape:export-filename="/home/david/1234000000726/images/id41.png"
   inkscape:export-xdpi="90"
   inkscape:export-ydpi="90">
       <text
   id="text6219"
   class="TextShape"><tspan
     style="font-size:423px;font-weight:400;font-family:'Liberation Mono, monospace'"
     id="tspan6221"
     font-weight="400"
     font-size="423px"
     class="TextParagraph"><tspan
       id="tspan6223"
       y="19670"
       x="9430"
       class="TextPosition"><tspan
         style="fill:#000000;stroke:none"
         id="tspan6225">gen_event</tspan></tspan></tspan></text>

      </g><g
   id="id30"
   transform="matrix(0.7,0,0,0.7,3210.6927,3407.6402)"
   inkscape:export-filename="/home/david/1234000000726/images/id41.png"
   inkscape:export-xdpi="90"
   inkscape:export-ydpi="90">
       <path
   style="fill:#ffffff;stroke:none"
   inkscape:connector-curvature="0"
   id="path6230"
   d="m 6214,15473 c 0,-45 112,-89 224,-89 l 1457,0 c 112,0 225,44 225,89 l 0,584 c 0,45 -113,90 -225,90 l -1457,0 c -112,0 -224,-45 -224,-90 l 0,-584 z m 0,-89 0,0 z m 1906,763 0,0 z" />
       <path
   style="fill:none;stroke:#000000"
   inkscape:connector-curvature="0"
   id="path6232"
   d="m 6214,15473 c 0,-45 112,-89 224,-89 l 1457,0 c 112,0 225,44 225,89 l 0,584 c 0,45 -113,90 -225,90 l -1457,0 c -112,0 -224,-45 -224,-90 l 0,-584 z" />
       <path
   style="fill:none;stroke:#000000"
   inkscape:connector-curvature="0"
   id="path6234"
   d="m 6214,15384 0,0 z" />
       <path
   style="fill:none;stroke:#000000"
   inkscape:connector-curvature="0"
   id="path6236"
   d="m 8120,16147 0,0 z" />
      </g><g
   id="id31"
   transform="matrix(0.7,0,0,0.7,3210.6927,3407.6402)"
   inkscape:export-filename="/home/david/1234000000726/images/id41.png"
   inkscape:export-xdpi="90"
   inkscape:export-ydpi="90">
       <text
   id="text6241"
   class="TextShape"><tspan
     style="font-size:423px;font-weight:400;font-family:'Liberation Mono, monospace'"
     id="tspan6243"
     font-weight="400"
     font-size="423px"
     class="TextParagraph"><tspan
       id="tspan6245"
       y="15225"
       x="6090"
       class="TextPosition"><tspan
         style="fill:#000000;stroke:none"
         id="tspan6247">Handler 1</tspan></tspan></tspan></text>

      </g><g
   id="id32"
   transform="matrix(0.7,0,0,0.7,3210.6927,3407.6402)"
   inkscape:export-filename="/home/david/1234000000726/images/id41.png"
   inkscape:export-xdpi="90"
   inkscape:export-ydpi="90">
       <text
   id="text6252"
   class="TextShape"><tspan
     style="font-size:423px;font-weight:400;font-family:'Liberation Mono, monospace'"
     id="tspan6254"
     font-weight="400"
     font-size="423px"
     class="TextParagraph"><tspan
       id="tspan6256"
       y="15225"
       x="9011"
       class="TextPosition"><tspan
         style="fill:#000000;stroke:none"
         id="tspan6258">Handler 2</tspan></tspan></tspan></text>

      </g><g
   id="id33"
   transform="matrix(0.7,0,0,0.7,3210.6927,3407.6402)"
   inkscape:export-filename="/home/david/1234000000726/images/id41.png"
   inkscape:export-xdpi="90"
   inkscape:export-ydpi="90">
       <path
   style="fill:#ffffff;stroke:none"
   inkscape:connector-curvature="0"
   id="path6263"
   d="m 9182,15473 c 0,-45 112,-89 224,-89 l 1457,0 c 112,0 225,44 225,89 l 0,584 c 0,45 -113,90 -225,90 l -1457,0 c -112,0 -224,-45 -224,-90 l 0,-584 z m 0,-89 0,0 z m 1906,763 0,0 z" />
       <path
   style="fill:none;stroke:#000000"
   inkscape:connector-curvature="0"
   id="path6265"
   d="m 9182,15473 c 0,-45 112,-89 224,-89 l 1457,0 c 112,0 225,44 225,89 l 0,584 c 0,45 -113,90 -225,90 l -1457,0 c -112,0 -224,-45 -224,-90 l 0,-584 z" />
       <path
   style="fill:none;stroke:#000000"
   inkscape:connector-curvature="0"
   id="path6267"
   d="m 9182,15384 0,0 z" />
       <path
   style="fill:none;stroke:#000000"
   inkscape:connector-curvature="0"
   id="path6269"
   d="m 11088,16147 0,0 z" />
      </g><g
   id="id34"
   transform="matrix(0.7,0,0,0.7,3210.6927,3407.6402)"
   inkscape:export-filename="/home/david/1234000000726/images/id41.png"
   inkscape:export-xdpi="90"
   inkscape:export-ydpi="90">
       <path
   style="fill:#ffffff;stroke:none"
   inkscape:connector-curvature="0"
   id="path6274"
   d="m 12096,15473 c 0,-45 112,-89 224,-89 l 1457,0 c 112,0 225,44 225,89 l 0,584 c 0,45 -113,90 -225,90 l -1457,0 c -112,0 -224,-45 -224,-90 l 0,-584 z m 0,-89 0,0 z m 1906,763 0,0 z" />
       <path
   style="fill:none;stroke:#000000"
   inkscape:connector-curvature="0"
   id="path6276"
   d="m 12096,15473 c 0,-45 112,-89 224,-89 l 1457,0 c 112,0 225,44 225,89 l 0,584 c 0,45 -113,90 -225,90 l -1457,0 c -112,0 -224,-45 -224,-90 l 0,-584 z" />
       <path
   style="fill:none;stroke:#000000"
   inkscape:connector-curvature="0"
   id="path6278"
   d="m 12096,15384 0,0 z" />
       <path
   style="fill:none;stroke:#000000"
   inkscape:connector-curvature="0"
   id="path6280"
   d="m 14002,16147 0,0 z" />
      </g><g
   id="id35"
   transform="matrix(0.7,0,0,0.7,3210.6927,3407.6402)"
   inkscape:export-filename="/home/david/1234000000726/images/id41.png"
   inkscape:export-xdpi="90"
   inkscape:export-ydpi="90">
       <text
   id="text6285"
   class="TextShape"><tspan
     style="font-size:423px;font-weight:400;font-family:'Liberation Mono, monospace'"
     id="tspan6287"
     font-weight="400"
     font-size="423px"
     class="TextParagraph"><tspan
       id="tspan6289"
       y="15225"
       x="11926"
       class="TextPosition"><tspan
         style="fill:#000000;stroke:none"
         id="tspan6291">Handler 3</tspan></tspan></tspan></text>

      </g><g
   id="id36"
   transform="matrix(0.7,0,0,0.7,3210.6927,3407.6402)"
   inkscape:export-filename="/home/david/1234000000726/images/id41.png"
   inkscape:export-xdpi="90"
   inkscape:export-ydpi="90">
       <text
   id="text6296"
   class="TextShape"><tspan
     style="font-size:353px;font-weight:400;font-family:'Liberation Mono, monospace'"
     id="tspan6298"
     font-weight="400"
     font-size="353px"
     class="TextParagraph"><tspan
       id="tspan6300"
       y="18308"
       x="3917"
       class="TextPosition"><tspan
         style="fill:#000000;stroke:none"
         id="tspan6302">notify(EventMgr, Event)</tspan></tspan></tspan></text>

      </g><g
   id="id37"
   transform="matrix(0.7,0,0,0.7,3210.6927,3407.6402)"
   inkscape:export-filename="/home/david/1234000000726/images/id41.png"
   inkscape:export-xdpi="90"
   inkscape:export-ydpi="90">
       <path
   style="fill:none;stroke:#000000"
   inkscape:connector-curvature="0"
   id="path6307"
   d="M 10533,18813 7920,16404" />
       <path
   style="fill:#000000;stroke:none"
   inkscape:connector-curvature="0"
   id="path6309"
   d="m 7604,16113 229,415 204,-220 -433,-195 z" />
      </g><g
   id="id38"
   transform="matrix(0.7,0,0,0.7,3210.6927,3407.6402)"
   inkscape:export-filename="/home/david/1234000000726/images/id41.png"
   inkscape:export-xdpi="90"
   inkscape:export-ydpi="90">
       <path
   style="fill:none;stroke:#000000"
   inkscape:connector-curvature="0"
   id="path6314"
   d="m 10533,18813 -320,-2241" />
       <path
   style="fill:#000000;stroke:none"
   inkscape:connector-curvature="0"
   id="path6316"
   d="m 10152,16146 -85,467 297,-43 -212,-424 z" />
      </g><g
   id="id39"
   transform="matrix(0.7,0,0,0.7,3210.6927,3407.6402)"
   inkscape:export-filename="/home/david/1234000000726/images/id41.png"
   inkscape:export-xdpi="90"
   inkscape:export-ydpi="90">
       <path
   style="fill:none;stroke:#000000"
   inkscape:connector-curvature="0"
   id="path6321"
   d="m 10533,18813 2356,-2243" />
       <path
   style="fill:#000000;stroke:none"
   inkscape:connector-curvature="0"
   id="path6323"
   d="m 13200,16273 -429,202 207,217 222,-419 z" />
      </g><g
   id="id40"
   transform="matrix(0.7,0,0,0.7,3210.6927,3407.6402)"
   inkscape:export-filename="/home/david/1234000000726/images/id41.png"
   inkscape:export-xdpi="90"
   inkscape:export-ydpi="90">
       <text
   id="text6328"
   class="TextShape"><tspan
     style="font-size:353px;font-weight:400;font-family:'Liberation Mono, monospace'"
     id="tspan6330"
     font-weight="400"
     font-size="353px"
     class="TextParagraph"><tspan
       id="tspan6332"
       y="17993"
       x="11799"
       class="TextPosition"><tspan
         style="fill:#000000;stroke:none"
         id="tspan6334">handle_event(Event, State)</tspan></tspan></tspan></text>

      </g><g
   id="id41"
   transform="matrix(0.7,0,0,0.7,3210.6927,3407.6402)"
   inkscape:export-xdpi="90"
   inkscape:export-ydpi="90">
       <path
   style="fill:none;stroke:#000000"
   inkscape:connector-curvature="0"
   id="path6339"
   d="m 6715,16113 2603,2377" />
       <path
   style="fill:#000000;stroke:none"
   inkscape:connector-curvature="0"
   id="path6341"
   d="m 9636,18780 -231,-414 -202,221 433,193 z" />
      </g>
</svg>