<?xml version="1.0" encoding="UTF-8" standalone="no"?>
<svg
   xmlns:ooo="http://xml.openoffice.org/svg/export"
   xmlns:dc="http://purl.org/dc/elements/1.1/"
   xmlns:cc="http://creativecommons.org/ns#"
   xmlns:rdf="http://www.w3.org/1999/02/22-rdf-syntax-ns#"
   xmlns:svg="http://www.w3.org/2000/svg"
   xmlns="http://www.w3.org/2000/svg"
   xmlns:sodipodi="http://sodipodi.sourceforge.net/DTD/sodipodi-0.dtd"
   xmlns:inkscape="http://www.inkscape.org/namespaces/inkscape"
   version="1.2"
   width="215.9mm"
   height="279.4mm"
   viewBox="0 0 21590 27940"
   preserveAspectRatio="xMidYMid"
   fill-rule="evenodd"
   clip-path="url(#presentation_clip_path)"
   stroke-width="28.222"
   stroke-linejoin="round"
   xml:space="preserve"
   id="svg2"
   inkscape:version="0.48.3.1 r9886"
   sodipodi:docname="gen_server.svg"><metadata
   id="metadata318"><rdf:RDF><cc:Work
       rdf:about=""><dc:format>image/svg+xml</dc:format><dc:type
         rdf:resource="http://purl.org/dc/dcmitype/StillImage" /></cc:Work></rdf:RDF></metadata><sodipodi:namedview
   pagecolor="#ffffff"
   bordercolor="#666666"
   borderopacity="1"
   objecttolerance="10"
   gridtolerance="10"
   guidetolerance="10"
   inkscape:pageopacity="0"
   inkscape:pageshadow="2"
   inkscape:window-width="1280"
   inkscape:window-height="976"
   id="namedview316"
   showgrid="false"
   inkscape:zoom="1"
   inkscape:cx="390.88983"
   inkscape:cy="495"
   inkscape:window-x="-3"
   inkscape:window-y="-3"
   inkscape:window-maximized="1"
   inkscape:current-layer="svg2" />
 <defs
   class="ClipPathGroup"
   id="defs4">
  <clipPath
   id="presentation_clip_path"
   clipPathUnits="userSpaceOnUse">
   <rect
   x="0"
   y="0"
   width="21590"
   height="27940"
   id="rect7" />
  </clipPath>
 
  
 
  
 
   
   
  
   
  
    
   
     
     
     
     
     
     
     
     
     
     
     
     
     
     
     
     
     
     
     
     
     
     
     
     
     
     
     
     
    </defs>
 <defs
   class="TextShapeIndex"
   id="defs9">
  <g
   ooo:slide="id1"
   ooo:id-list="id3 id4 id5 id6 id7 id8 id9 id10 id11 id12 id13 id14 id15 id16 id17 id18 id19 id20 id21 id22 id23 id24 id25 id26 id27 id28 id29 id30"
   id="g11" />
 </defs>
 <defs
   class="EmbeddedBulletChars"
   id="defs13">
  <g
   id="bullet-char-template(57356)"
   transform="scale(0.00048828125,-0.00048828125)">
   <path
   d="M 580,1141 L 1163,571 580,0 -4,571 580,1141 Z"
   id="path16" />
  </g>
  <g
   id="bullet-char-template(57354)"
   transform="scale(0.00048828125,-0.00048828125)">
   <path
   d="M 8,1128 L 1137,1128 1137,0 8,0 8,1128 Z"
   id="path19" />
  </g>
  <g
   id="bullet-char-template(10146)"
   transform="scale(0.00048828125,-0.00048828125)">
   <path
   d="M 174,0 L 602,739 174,1481 1456,739 174,0 Z M 1358,739 L 309,1346 659,739 1358,739 Z"
   id="path22" />
  </g>
  <g
   id="bullet-char-template(10132)"
   transform="scale(0.00048828125,-0.00048828125)">
   <path
   d="M 2015,739 L 1276,0 717,0 1260,543 174,543 174,936 1260,936 717,1481 1274,1481 2015,739 Z"
   id="path25" />
  </g>
  <g
   id="bullet-char-template(10007)"
   transform="scale(0.00048828125,-0.00048828125)">
   <path
   d="M 0,-2 C -7,14 -16,27 -25,37 L 356,567 C 262,823 215,952 215,954 215,979 228,992 255,992 264,992 276,990 289,987 310,991 331,999 354,1012 L 381,999 492,748 772,1049 836,1024 860,1049 C 881,1039 901,1025 922,1006 886,937 835,863 770,784 769,783 710,716 594,584 L 774,223 C 774,196 753,168 711,139 L 727,119 C 717,90 699,76 672,76 641,76 570,178 457,381 L 164,-76 C 142,-110 111,-127 72,-127 30,-127 9,-110 8,-76 1,-67 -2,-52 -2,-32 -2,-23 -1,-13 0,-2 Z"
   id="path28" />
  </g>
  <g
   id="bullet-char-template(10004)"
   transform="scale(0.00048828125,-0.00048828125)">
   <path
   d="M 285,-33 C 182,-33 111,30 74,156 52,228 41,333 41,471 41,549 55,616 82,672 116,743 169,778 240,778 293,778 328,747 346,684 L 369,508 C 377,444 397,411 428,410 L 1163,1116 C 1174,1127 1196,1133 1229,1133 1271,1133 1292,1118 1292,1087 L 1292,965 C 1292,929 1282,901 1262,881 L 442,47 C 390,-6 338,-33 285,-33 Z"
   id="path31" />
  </g>
  <g
   id="bullet-char-template(9679)"
   transform="scale(0.00048828125,-0.00048828125)">
   <path
   d="M 813,0 C 632,0 489,54 383,161 276,268 223,411 223,592 223,773 276,916 383,1023 489,1130 632,1184 813,1184 992,1184 1136,1130 1245,1023 1353,916 1407,772 1407,592 1407,412 1353,268 1245,161 1136,54 992,0 813,0 Z"
   id="path34" />
  </g>
  <g
   id="bullet-char-template(8226)"
   transform="scale(0.00048828125,-0.00048828125)">
   <path
   d="M 346,457 C 273,457 209,483 155,535 101,586 74,649 74,723 74,796 101,859 155,911 209,963 273,989 346,989 419,989 480,963 531,910 582,859 608,796 608,723 608,648 583,586 532,535 482,483 420,457 346,457 Z"
   id="path37" />
  </g>
  <g
   id="bullet-char-template(8211)"
   transform="scale(0.00048828125,-0.00048828125)">
   <path
   d="M -4,459 L 1135,459 1135,606 -4,606 -4,459 Z"
   id="path40" />
  </g>
 </defs>
 <defs
   class="TextEmbeddedBitmaps"
   id="defs42" />
 
 <g
   class="com.sun.star.drawing.CustomShape"
   id="g56">
      <g
   id="id3">
       <path
   d="m 2967,7857 c 612,0 1080,467 1080,1079 0,612 -468,1080 -1080,1080 -612,0 -1079,-468 -1079,-1080 0,-612 467,-1079 1079,-1079 z m -1079,0 0,0 z m 2160,2160 0,0 z"
   id="path59"
   inkscape:connector-curvature="0"
   style="fill:#ffffff;stroke:none" />
       <path
   d="m 2967,7857 c 612,0 1080,467 1080,1079 0,612 -468,1080 -1080,1080 -612,0 -1079,-468 -1079,-1080 0,-612 467,-1079 1079,-1079 z"
   id="path61"
   inkscape:connector-curvature="0"
   style="fill:none;stroke:#000000" />
       <text
   class="TextShape"
   id="text63"><tspan
     class="TextParagraph"
     font-size="423px"
     font-weight="400"
     id="tspan65"
     style="font-size:423px;font-weight:400;font-family:'Liberation Sans, sans-serif'"><tspan
       class="TextPosition"
       x="2425"
       y="9085"
       id="tspan67"><tspan
         id="tspan69"
         style="fill:#000000;stroke:none">Client</tspan></tspan></tspan></text>

      </g>
     </g><g
   class="com.sun.star.drawing.CustomShape"
   id="g71">
      <g
   id="id4">
       <path
   d="m 9851,10398 -1461,0 0,-3048 2921,0 0,3048 -1460,0 z"
   id="path74"
   inkscape:connector-curvature="0"
   style="fill:#ffffff;stroke:none" />
       <path
   d="m 9851,10398 -1461,0 0,-3048 2921,0 0,3048 -1460,0 z"
   id="path76"
   inkscape:connector-curvature="0"
   style="fill:none;stroke:#000000" />
      </g>
     </g><g
   class="com.sun.star.drawing.TextShape"
   id="g78">
      <g
   id="id5">
       <text
   class="TextShape"
   id="text81"><tspan
     class="TextParagraph"
     font-size="423px"
     font-weight="400"
     id="tspan83"
     style="font-size:423px;font-weight:400;font-family:'Liberation Mono, monospace'"><tspan
       class="TextPosition"
       x="8816"
       y="8080"
       id="tspan85"><tspan
         id="tspan87"
         style="fill:#000000;stroke:none">GenServer</tspan></tspan></tspan></text>

      </g>
     </g><g
   class="com.sun.star.drawing.CustomShape"
   id="g89">
      <g
   id="id6">
       <path
   d="m 8898,12392 c 0,-45 112,-89 224,-89 l 1457,0 c 112,0 225,44 225,89 l 0,584 c 0,45 -113,90 -225,90 l -1457,0 c -112,0 -224,-45 -224,-90 l 0,-584 z m 0,-89 0,0 z m 1906,763 0,0 z"
   id="path92"
   inkscape:connector-curvature="0"
   style="fill:#ffffff;stroke:none" />
       <path
   d="m 8898,12392 c 0,-45 112,-89 224,-89 l 1457,0 c 112,0 225,44 225,89 l 0,584 c 0,45 -113,90 -225,90 l -1457,0 c -112,0 -224,-45 -224,-90 l 0,-584 z"
   id="path94"
   inkscape:connector-curvature="0"
   style="fill:none;stroke:#000000" />
      </g>
     </g><g
   class="com.sun.star.drawing.TextShape"
   id="g96">
      <g
   id="id7">
       <text
   class="TextShape"
   id="text99"><tspan
     class="TextParagraph"
     font-size="423px"
     font-weight="400"
     id="tspan101"
     style="font-size:423px;font-weight:400;font-family:'Liberation Mono, monospace'"><tspan
       class="TextPosition"
       x="8997"
       y="13649"
       id="tspan103"><tspan
         id="tspan105"
         style="fill:#000000;stroke:none">Module</tspan></tspan></tspan></text>

      </g>
     </g><g
   class="com.sun.star.drawing.LineShape"
   id="g107">
      <g
   id="id8">
       <path
   d="m 3667,8112 4160,0"
   id="path110"
   inkscape:connector-curvature="0"
   style="fill:none;stroke:#000000" />
       <path
   d="m 8366,8112 -564,-188 0,376 564,-188 z"
   id="path112"
   inkscape:connector-curvature="0"
   style="fill:#000000;stroke:none" />
      </g>
     </g><g
   class="com.sun.star.drawing.TextShape"
   id="g114">
      <g
   id="id9">
       <text
   class="TextShape"
   id="text117"><tspan
     class="TextParagraph"
     font-size="353px"
     font-weight="400"
     id="tspan119"
     style="font-size:353px;font-weight:400;font-family:'Liberation Mono, monospace'"><tspan
       class="TextPosition"
       x="3917"
       y="7821"
       id="tspan121"><tspan
         id="tspan123"
         style="fill:#000000;stroke:none">call(server,request)</tspan></tspan></tspan></text>

      </g>
     </g><g
   class="com.sun.star.drawing.TextShape"
   id="g125">
      <g
   id="id10">
       <text
   class="TextShape"
   id="text128"><tspan
     class="TextParagraph"
     font-size="353px"
     font-weight="400"
     id="tspan130"
     style="font-size:353px;font-weight:400;font-family:'Liberation Mono, monospace'"><tspan
       class="TextPosition"
       x="12132"
       y="10928"
       id="tspan132"><tspan
         id="tspan134"
         style="fill:#000000;stroke:none">handle_call(request, from, state)</tspan></tspan></tspan></text>

      </g>
     </g><g
   class="com.sun.star.drawing.ConnectorShape"
   id="g136">
      <g
   id="id11">
       <path
   d="m 11312,8874 525,0 0,3810 -494,0"
   id="path139"
   inkscape:connector-curvature="0"
   style="fill:none;stroke:#000000" />
       <path
   d="m 10804,12684 564,188 0,-376 -564,188 z"
   id="path141"
   inkscape:connector-curvature="0"
   style="fill:#000000;stroke:none" />
      </g>
     </g><g
   class="com.sun.star.drawing.ConnectorShape"
   id="g143">
      <g
   id="id12">
       <path
   d="m 9852,12303 0,-952 -1,0 0,-414"
   id="path146"
   inkscape:connector-curvature="0"
   style="fill:none;stroke:#000000" />
       <path
   d="m 9851,10398 -188,564 376,0 -188,-564 z"
   id="path148"
   inkscape:connector-curvature="0"
   style="fill:#000000;stroke:none" />
      </g>
     </g><g
   class="com.sun.star.drawing.TextShape"
   id="g150">
      <g
   id="id13">
       <text
   class="TextShape"
   id="text153"><tspan
     class="TextParagraph"
     font-size="353px"
     font-weight="400"
     id="tspan155"
     style="font-size:353px;font-weight:400;font-family:'Liberation Mono, monospace'"><tspan
       class="TextPosition"
       x="4185"
       y="11831"
       id="tspan157"><tspan
         id="tspan159"
         style="fill:#000000;stroke:none">{:reply, reply, new_state}</tspan></tspan></tspan></text>

      </g>
     </g><g
   class="com.sun.star.drawing.LineShape"
   id="g161">
      <g
   id="id14">
       <path
   d="m 8366,9636 -4033,0"
   id="path164"
   inkscape:connector-curvature="0"
   style="fill:none;stroke:#000000" />
       <path
   d="m 3794,9636 564,188 0,-376 -564,188 z"
   id="path166"
   inkscape:connector-curvature="0"
   style="fill:#000000;stroke:none" />
      </g>
     </g><g
   class="com.sun.star.drawing.TextShape"
   id="g168">
      <g
   id="id15">
       <text
   class="TextShape"
   id="text171"><tspan
     class="TextParagraph"
     font-size="353px"
     font-weight="400"
     id="tspan173"
     style="font-size:353px;font-weight:400;font-family:'Liberation Mono, monospace'"><tspan
       class="TextPosition"
       x="5441"
       y="10180"
       id="tspan175"><tspan
         id="tspan177"
         style="fill:#000000;stroke:none">Reply</tspan></tspan></tspan></text>

      </g>
     </g><g
   class="com.sun.star.drawing.CustomShape"
   id="g179">
      <g
   id="id16">
       <path
   d="m 3458,16164 c 612,0 1080,467 1080,1079 0,612 -468,1080 -1080,1080 -612,0 -1079,-468 -1079,-1080 0,-612 467,-1079 1079,-1079 z m -1079,0 0,0 z m 2160,2160 0,0 z"
   id="path182"
   inkscape:connector-curvature="0"
   style="fill:#ffffff;stroke:none" />
       <path
   d="m 3458,16164 c 612,0 1080,467 1080,1079 0,612 -468,1080 -1080,1080 -612,0 -1079,-468 -1079,-1080 0,-612 467,-1079 1079,-1079 z"
   id="path184"
   inkscape:connector-curvature="0"
   style="fill:none;stroke:#000000" />
       <text
   class="TextShape"
   id="text186"><tspan
     class="TextParagraph"
     font-size="423px"
     font-weight="400"
     id="tspan188"
     style="font-size:423px;font-weight:400;font-family:'Liberation Sans, sans-serif'"><tspan
       class="TextPosition"
       x="2739"
       y="17392"
       id="tspan190"><tspan
         id="tspan192"
         style="fill:#000000;stroke:none">Client 1</tspan></tspan></tspan></text>

      </g>
     </g><g
   class="com.sun.star.drawing.CustomShape"
   id="g194">
      <g
   id="id17">
       <path
   d="m 10342,18705 -1461,0 0,-3048 2921,0 0,3048 -1460,0 z"
   id="path197"
   inkscape:connector-curvature="0"
   style="fill:#ffffff;stroke:none" />
       <path
   d="m 10342,18705 -1461,0 0,-3048 2921,0 0,3048 -1460,0 z"
   id="path199"
   inkscape:connector-curvature="0"
   style="fill:none;stroke:#000000" />
      </g>
     </g><g
   class="com.sun.star.drawing.TextShape"
   id="g201">
      <g
   id="id18">
       <text
   class="TextShape"
   id="text204"><tspan
     class="TextParagraph"
     font-size="423px"
     font-weight="400"
     id="tspan206"
     style="font-size:423px;font-weight:400;font-family:'Liberation Mono, monospace'"><tspan
       class="TextPosition"
       x="9151"
       y="16241"
       id="tspan208"><tspan
         id="tspan210"
         style="fill:#000000;stroke:none">GenServer</tspan></tspan></tspan></text>

      </g>
     </g><g
   class="com.sun.star.drawing.CustomShape"
   id="g212">
      <g
   id="id19">
       <path
   d="m 12937,15948 c 0,-45 112,-89 224,-89 l 1457,0 c 112,0 225,44 225,89 l 0,584 c 0,45 -113,90 -225,90 l -1457,0 c -112,0 -224,-45 -224,-90 l 0,-584 z m 0,-89 0,0 z m 1906,763 0,0 z"
   id="path215"
   inkscape:connector-curvature="0"
   style="fill:#ffffff;stroke:none" />
       <path
   d="m 12937,15948 c 0,-45 112,-89 224,-89 l 1457,0 c 112,0 225,44 225,89 l 0,584 c 0,45 -113,90 -225,90 l -1457,0 c -112,0 -224,-45 -224,-90 l 0,-584 z"
   id="path217"
   inkscape:connector-curvature="0"
   style="fill:none;stroke:#000000" />
      </g>
     </g><g
   class="com.sun.star.drawing.TextShape"
   id="g219">
      <g
   id="id20">
       <text
   class="TextShape"
   id="text222"><tspan
     class="TextParagraph"
     font-size="423px"
     font-weight="400"
     id="tspan224"
     style="font-size:423px;font-weight:400;font-family:'Liberation Mono, monospace'"><tspan
       class="TextPosition"
       x="13194"
       y="17224"
       id="tspan226"><tspan
         id="tspan228"
         style="fill:#000000;stroke:none">Module</tspan></tspan></tspan></text>

      </g>
     </g><g
   class="com.sun.star.drawing.LineShape"
   id="g230">
      <g
   id="id21">
       <path
   d="m 4158,16419 4160,0"
   id="path233"
   inkscape:connector-curvature="0"
   style="fill:none;stroke:#000000" />
       <path
   d="m 8857,16419 -564,-188 0,376 564,-188 z"
   id="path235"
   inkscape:connector-curvature="0"
   style="fill:#000000;stroke:none" />
      </g>
     </g><g
   class="com.sun.star.drawing.LineShape"
   id="g237">
      <g
   id="id22">
       <path
   d="m 8874,17256 -3779,0"
   id="path240"
   inkscape:connector-curvature="0"
   style="fill:none;stroke:#000000" />
       <path
   d="m 4556,17256 564,188 0,-376 -564,188 z"
   id="path242"
   inkscape:connector-curvature="0"
   style="fill:#000000;stroke:none" />
      </g>
     </g><g
   class="com.sun.star.drawing.LineShape"
   id="g244">
      <g
   id="id23">
       <path
   d="m 11795,15986 604,0"
   id="path247"
   inkscape:connector-curvature="0"
   style="fill:none;stroke:#000000" />
       <path
   d="m 12938,15986 -564,-188 0,376 564,-188 z"
   id="path249"
   inkscape:connector-curvature="0"
   style="fill:#000000;stroke:none" />
      </g>
     </g><g
   class="com.sun.star.drawing.LineShape"
   id="g251">
      <g
   id="id24">
       <path
   d="m 12938,16494 -604,0"
   id="path254"
   inkscape:connector-curvature="0"
   style="fill:none;stroke:#000000" />
       <path
   d="m 11795,16494 564,188 0,-376 -564,188 z"
   id="path256"
   inkscape:connector-curvature="0"
   style="fill:#000000;stroke:none" />
      </g>
     </g><g
   class="com.sun.star.drawing.CustomShape"
   id="g258">
      <g
   id="id25">
       <path
   d="m 6269,19160 c 612,0 1080,467 1080,1079 0,612 -468,1080 -1080,1080 -612,0 -1079,-468 -1079,-1080 0,-612 467,-1079 1079,-1079 z m -1079,0 0,0 z m 2160,2160 0,0 z"
   id="path261"
   inkscape:connector-curvature="0"
   style="fill:#ffffff;stroke:none" />
       <path
   d="m 6269,19160 c 612,0 1080,467 1080,1079 0,612 -468,1080 -1080,1080 -612,0 -1079,-468 -1079,-1080 0,-612 467,-1079 1079,-1079 z"
   id="path263"
   inkscape:connector-curvature="0"
   style="fill:none;stroke:#000000" />
       <text
   class="TextShape"
   id="text265"><tspan
     class="TextParagraph"
     font-size="423px"
     font-weight="400"
     id="tspan267"
     style="font-size:423px;font-weight:400;font-family:'Liberation Sans, sans-serif'"><tspan
       class="TextPosition"
       x="5550"
       y="20388"
       id="tspan269"><tspan
         id="tspan271"
         style="fill:#000000;stroke:none">Client 2</tspan></tspan></tspan></text>

      </g>
     </g><g
   class="com.sun.star.drawing.CustomShape"
   id="g273">
      <g
   id="id26">
       <path
   d="m 13508,19287 c 612,0 1080,467 1080,1079 0,612 -468,1080 -1080,1080 -612,0 -1079,-468 -1079,-1080 0,-612 467,-1079 1079,-1079 z m -1079,0 0,0 z m 2160,2160 0,0 z"
   id="path276"
   inkscape:connector-curvature="0"
   style="fill:#ffffff;stroke:none" />
       <path
   d="m 13508,19287 c 612,0 1080,467 1080,1079 0,612 -468,1080 -1080,1080 -612,0 -1079,-468 -1079,-1080 0,-612 467,-1079 1079,-1079 z"
   id="path278"
   inkscape:connector-curvature="0"
   style="fill:none;stroke:#000000" />
       <text
   class="TextShape"
   id="text280"><tspan
     class="TextParagraph"
     font-size="423px"
     font-weight="400"
     id="tspan282"
     style="font-size:423px;font-weight:400;font-family:'Liberation Sans, sans-serif'"><tspan
       class="TextPosition"
       x="12789"
       y="20515"
       id="tspan284"><tspan
         id="tspan286"
         style="fill:#000000;stroke:none">Client 3</tspan></tspan></tspan></text>

      </g>
     </g><g
   class="com.sun.star.drawing.LineShape"
   id="g288">
      <g
   id="id27">
       <path
   d="m 6715,19288 1794,-797"
   id="path291"
   inkscape:connector-curvature="0"
   style="fill:none;stroke:#000000" />
       <path
   d="m 9001,18272 -592,57 153,344 439,-401 z"
   id="path293"
   inkscape:connector-curvature="0"
   style="fill:#000000;stroke:none" />
      </g>
     </g><g
   class="com.sun.star.drawing.LineShape"
   id="g295">
      <g
   id="id28">
       <path
   d="m 9509,18780 -1794,797"
   id="path298"
   inkscape:connector-curvature="0"
   style="fill:none;stroke:#000000" />
       <path
   d="m 7223,19796 592,-57 -153,-344 -439,401 z"
   id="path300"
   inkscape:connector-curvature="0"
   style="fill:#000000;stroke:none" />
      </g>
     </g><g
   class="com.sun.star.drawing.LineShape"
   id="g302">
      <g
   id="id29">
       <path
   d="m 12430,20050 -802,-980"
   id="path305"
   inkscape:connector-curvature="0"
   style="fill:none;stroke:#000000" />
       <path
   d="m 11287,18653 212,556 291,-239 -503,-317 z"
   id="path307"
   inkscape:connector-curvature="0"
   style="fill:#000000;stroke:none" />
      </g>
     </g><g
   class="com.sun.star.drawing.LineShape"
   id="g309">
      <g
   id="id30">
       <path
   d="m 11795,18272 699,961"
   id="path312"
   inkscape:connector-curvature="0"
   style="fill:none;stroke:#000000" />
       <path
   d="m 12811,19669 -180,-567 -304,221 484,346 z"
   id="path314"
   inkscape:connector-curvature="0"
   style="fill:#000000;stroke:none" />
      </g>
     </g>
</svg>